<?xml version="1.0" encoding="UTF-8"?>
<svg id="Layer_1" data-name="Layer 1" xmlns="http://www.w3.org/2000/svg" viewBox="0 0 33.33 39.46">
  <path d="m14.1,31.88c-.56-.2-1.09-.37-1.61-.57-.06-.02-.1-.17-.1-.26v-8.18c-.34.02-.66.07-.98.06-1.36-.06-2.54-1.29-2.55-2.66-.01-1.53-.03-3.06.03-4.59.06-1.44.62-2.73,1.48-3.89,1.3-1.74,3.08-2.68,5.2-3.01.03,0,.07-.01.17-.03-1.21-.38-2.15-1.04-2.77-2.09-.62-1.06-.77-2.2-.44-3.39C13.13,1.08,14.96-.03,16.92,0c2.07.03,3.79,1.51,4.25,3.46.42,1.78-.5,4.51-3.27,5.27,3.09.51,5.31,2.07,6.44,5.1.21-.56.4-1.07.58-1.58.64-1.76,1.27-3.52,1.9-5.28.17-.48.53-.77,1-.95-.05-.25-.12-.5-.15-.75-.11-1.06.35-1.86,1.17-2.47.55-.42,1.14-.8,1.67-1.24.5-.41.95-.88,1.42-1.33.12-.12.22-.26.42-.19.2.07.2.23.23.4.21,1.26.42,2.51.65,3.76.15.83.17,1.62-.28,2.37-.26.43-.63.75-1.06,1.02.3.63.2,1.22-.04,1.86-1.08,2.88-2.13,5.77-3.19,8.65-.16.44-.32.88-.49,1.35.57-.22,1.07-.68,1.74-1.59v13.75c-2.4-1.04-4.87-1.27-7.43-.65v-6.76c.42-.15.87-.26,1.27-.47,1.37-.7,2.04-1.88,2.23-3.37,0-.06,0-.13.02-.18.42-1.12.84-2.23,1.25-3.35.84-2.29,1.67-4.59,2.51-6.89.03-.08.05-.17.09-.28-.63-.24-1.25-.48-1.88-.73-.32.88-.63,1.73-.94,2.58-.69,1.9-1.39,3.8-2.07,5.7-.09.24-.13.51-.14.76-.02.72,0,1.44-.02,2.16-.03,1.33-1.01,2.51-2.32,2.74-.39.07-.8.01-1.22.01v8.35c-.58.2-1.14.4-1.74.62V15.23c0-.54.36-.9.89-.89.48,0,.82.37.82.9v4.83c0,.18.02.37.08.54.12.33.47.52.8.5.37-.03.73-.34.8-.7.03-.15.04-.3.04-.45,0-1.21-.04-2.43.01-3.64.09-2.23-1.48-4.76-4.08-5.56-2.21-.68-4.3-.4-6.13,1.06-1.37,1.1-2.1,2.57-2.12,4.36-.01,1.27,0,2.53,0,3.8,0,.28.03.54.21.77.24.31.6.45.95.34.34-.1.56-.41.56-.8v-5.07c0-.64.6-1.05,1.19-.83.35.13.54.44.54.88v16.6h.02ZM16.8,1.74c-1.47,0-2.69,1.19-2.7,2.64,0,1.53,1.19,2.72,2.76,2.72,1.43,0,2.66-1.21,2.67-2.65,0-1.49-1.22-2.71-2.72-2.71h-.01Zm12.6,4.44c.1-.3.19-.59.3-.86.07-.17.16-.34.29-.46.24-.21.61-.18.86,0,.25.19.32.45.21.78-.12.34-.24.67-.36,1.01.1.06.18.11.24.15.19-.14.36-.28.54-.4.46-.34.63-.78.5-1.34-.13-.51-.25-1.02-.37-1.54-.06-.25-.1-.51-.15-.8-.14.1-.25.19-.37.26-.48.31-.96.63-1.44.93-.68.43-.87.92-.64,1.68.05.16.07.33.11.51.07.01.16.03.29.06v.02Zm1.55,2.09c-.91-.36-1.8-.71-2.69-1.06-.04-.02-.13.03-.16.07-.07.1-.12.21-.19.34.97.38,1.92.74,2.87,1.12.06-.17.11-.29.17-.47Z" style="fill: #070707; stroke-width: 0px;"/>
  <path d="m1.71,13.35v20.35c0,.39-.02.77.22,1.11.29.41.71.51,1.18.52,1.98,0,3.96.04,5.94,0,1.75-.04,3.34.49,4.91,1.16.69.29,1.35.64,2.02.97.61.31,1.21.3,1.81-.04,1.53-.85,3.11-1.57,4.83-1.92.5-.1,1.01-.14,1.52-.15,1.99-.02,3.98,0,5.97,0,.89,0,1.31-.43,1.31-1.31V13.46c.53-.07,1.2.28,1.44.82.15.33.28.72.28,1.08.02,6.28,0,12.57,0,18.85,0,1.71-1.14,2.85-2.85,2.85-1.94,0-3.87.05-5.81,0-1.41-.04-2.7.3-3.95.87-.86.39-1.71.82-2.56,1.24-.77.38-1.52.38-2.31,0-1.2-.56-2.41-1.11-3.63-1.63-.82-.35-1.69-.49-2.6-.48-2.23.02-4.45,0-6.68,0-.55,0-1.07-.11-1.53-.42C.45,36.1.01,35.36,0,34.4,0,32.76,0,31.13,0,29.49v-14.04c0-.75.24-1.37.9-1.77.23-.14.51-.21.81-.33Z" style="fill: #070707; stroke-width: 0px;"/>
  <path d="m11.14,9.23c-1.93,1.45-3.02,3.39-3.41,5.74-.07.42-.08.86-.08,1.29-.01,1.23.03,2.46-.01,3.69-.08,2.07,1.34,3.8,3.35,4.18.04,0,.08.02.14.03v6.81c-2.72-.66-5.35-.4-7.95.66V10.9c0-.17.06-.23.2-.28,1.6-.65,3.26-1.1,4.98-1.28.92-.09,1.85-.14,2.78-.21,0,.03,0,.06.01.1h-.01Z" style="fill: #070707; stroke-width: 0px;"/>
  <path d="m8.14,32.02c2.05.03,4.01.49,5.89,1.27.41.17.84.34,1.22.57.4.24.78.53,1.14.84.32.27.58.24.87-.05s.64-.58,1.01-.78c1.89-.97,3.9-1.61,6.02-1.8,1.76-.16,3.48.06,5.08.87.12.06.23.12.34.2.38.27.48.71.27,1.09-.2.36-.63.52-1.05.36-.46-.17-.9-.41-1.37-.54-1.88-.53-3.74-.38-5.59.14-1.44.41-2.78,1.04-4.13,1.67-.43.2-.86.44-1.36.3-.32-.09-.62-.23-.93-.37-1.61-.74-3.22-1.47-4.97-1.81-1.76-.35-3.53-.4-5.26.18-.28.1-.55.24-.83.34-.22.08-.46.16-.68.16-.34,0-.62-.26-.7-.58-.09-.37.03-.77.38-.93.68-.3,1.36-.62,2.08-.8.83-.21,1.7-.27,2.55-.39v.07h.02Z" style="fill: #070707; stroke-width: 0px;"/>
  <path d="m15.96,27.06v-5.01c0-.71.7-1.11,1.32-.76.31.17.42.44.41.79v10.08c0,.49-.33.85-.8.89-.53.05-.92-.31-.93-.87-.01-.62,0-1.25,0-1.87v-3.25h0Z" style="fill: #070707; stroke-width: 0px;"/>
  <path d="m24.17,10.79c-.57-.54-1.11-1.06-1.7-1.62.75.04,1.46.08,2.21.13-.19.55-.35,1.03-.51,1.5h0Z" style="fill: #070707; stroke-width: 0px;"/>
</svg>