<?xml version="1.0" encoding="UTF-8"?>
<svg id="Layer_1" data-name="Layer 1" xmlns="http://www.w3.org/2000/svg" viewBox="0 0 33.34 39.46">
  <path d="m19.24,31.52V15.28c0-.43.2-.74.54-.88.58-.23,1.18.19,1.19.83v5.07c0,.39.22.7.56.8.35.11.72-.03.95-.34.18-.23.21-.49.21-.77v-3.8c-.02-1.78-.75-3.26-2.12-4.36-1.83-1.46-3.91-1.74-6.13-1.06-2.61.8-4.17,3.33-4.08,5.56.05,1.21,0,2.43.01,3.64,0,.15,0,.3.04.45.07.36.43.67.8.7.33.03.67-.17.8-.5.06-.17.08-.36.08-.54v-4.83c0-.53.34-.9.82-.9.53,0,.89.35.89.89v16.62c-.6-.21-1.16-.41-1.74-.62v-8.35c-.42,0-.83.06-1.22-.01-1.31-.23-2.29-1.41-2.32-2.74-.02-.72,0-1.44-.02-2.16,0-.26-.05-.52-.14-.76-.68-1.9-1.38-3.8-2.07-5.7-.31-.85-.62-1.7-.94-2.58-.64.25-1.26.49-1.88.73.03.11.06.2.09.28.84,2.3,1.67,4.59,2.51,6.89.41,1.12.84,2.23,1.25,3.35.02.06.01.12.02.18.19,1.49.86,2.67,2.23,3.37.4.2.85.31,1.27.47v6.76c-2.56-.62-5.03-.39-7.43.65v-13.75c.67.9,1.17,1.36,1.74,1.59-.17-.47-.33-.91-.49-1.35-1.06-2.89-2.1-5.78-3.19-8.65-.24-.63-.34-1.23-.04-1.86-.43-.27-.8-.58-1.06-1.02C-.07,5.81-.06,5.01.1,4.19.33,2.94.54,1.68.75.43c.03-.17.03-.34.23-.4.2-.07.3.07.42.19.47.45.92.92,1.42,1.33.53.44,1.12.82,1.67,1.24.82.62,1.28,1.42,1.17,2.47-.03.25-.1.49-.15.75.48.18.83.47,1,.95.63,1.76,1.27,3.52,1.9,5.28.18.51.38,1.02.58,1.58,1.13-3.03,3.35-4.59,6.44-5.1-2.77-.76-3.69-3.49-3.27-5.27C12.63,1.51,14.35.03,16.42,0c1.96-.03,3.79,1.08,4.39,3.26.33,1.18.18,2.32-.44,3.39-.62,1.06-1.56,1.71-2.77,2.09.1.02.14.03.17.03,2.12.33,3.9,1.26,5.2,3.01.86,1.15,1.42,2.44,1.48,3.89.06,1.53.05,3.06.03,4.59-.01,1.37-1.2,2.59-2.55,2.66-.32.02-.64-.04-.98-.06v8.18c0,.09-.04.23-.1.26-.52.2-1.05.38-1.61.57v-.36h0ZM13.82,4.45c0,1.44,1.23,2.65,2.67,2.65,1.56,0,2.76-1.19,2.76-2.72,0-1.45-1.23-2.65-2.7-2.64-1.51,0-2.73,1.22-2.72,2.71h0Zm-9.59,1.67c.04-.18.06-.35.11-.51.22-.76.04-1.25-.64-1.68-.48-.31-.96-.62-1.44-.93-.12-.08-.23-.16-.37-.26-.05.29-.09.54-.15.8-.12.51-.25,1.02-.37,1.54-.14.56.03,1,.5,1.34.18.13.35.26.54.4.06-.04.14-.09.24-.15-.12-.34-.25-.67-.36-1.01-.11-.32-.04-.59.21-.78.25-.19.62-.21.86,0,.13.11.22.29.29.46.11.27.2.56.3.86.13-.03.22-.05.29-.06v-.02Zm-1.67,2.62c.95-.37,1.9-.74,2.87-1.12-.07-.14-.12-.25-.19-.34-.03-.04-.12-.08-.16-.07-.89.34-1.78.7-2.69,1.06.06.18.11.3.17.47Z" style="fill: #050505; stroke-width: 0px;"/>
  <path d="m31.62,13.35v20.35c0,.39.02.77-.22,1.11-.29.41-.71.51-1.18.52-1.98,0-3.96.04-5.94,0-1.75-.04-3.34.49-4.91,1.16-.69.29-1.35.64-2.02.97-.61.31-1.21.3-1.81-.04-1.53-.85-3.11-1.57-4.83-1.92-.5-.1-1.01-.14-1.52-.15-1.99-.02-3.98,0-5.97,0-.89,0-1.31-.43-1.31-1.31V13.46c-.53-.07-1.2.28-1.44.82-.15.33-.28.72-.28,1.08-.02,6.28-.01,12.57-.01,18.85,0,1.71,1.14,2.85,2.85,2.85,1.94,0,3.87.05,5.81,0,1.41-.04,2.7.3,3.95.87.86.39,1.71.82,2.56,1.24.77.38,1.52.38,2.31,0,1.2-.56,2.41-1.11,3.63-1.63.82-.35,1.69-.49,2.6-.48,2.23.02,4.45,0,6.68,0,.55,0,1.07-.11,1.53-.42.79-.53,1.22-1.28,1.23-2.24,0-1.64,0-3.27,0-4.91v-14.04c0-.75-.24-1.37-.9-1.77-.23-.14-.51-.21-.81-.33Z" style="fill: #050505; stroke-width: 0px;"/>
  <path d="m22.19,9.23c1.93,1.45,3.02,3.39,3.41,5.74.07.42.08.86.08,1.29.01,1.23-.03,2.46.01,3.69.08,2.07-1.34,3.8-3.35,4.18-.04,0-.08.02-.14.03v6.81c2.72-.66,5.35-.4,7.95.66V10.9c0-.17-.06-.23-.2-.28-1.6-.65-3.26-1.1-4.98-1.28-.92-.09-1.85-.14-2.78-.21,0,.03,0,.06-.01.1h.01Z" style="fill: #050505; stroke-width: 0px;"/>
  <path d="m25.2,32.02c-2.05.03-4.01.49-5.89,1.27-.41.17-.84.34-1.22.57-.4.24-.78.53-1.14.84-.32.27-.58.24-.87-.05-.3-.3-.64-.58-1.01-.78-1.89-.97-3.9-1.61-6.02-1.8-1.76-.16-3.48.06-5.08.87-.12.06-.23.12-.34.2-.38.27-.48.71-.27,1.09.2.36.63.52,1.05.36.46-.17.9-.41,1.37-.54,1.88-.53,3.74-.38,5.59.14,1.44.41,2.78,1.04,4.13,1.67.43.2.86.44,1.36.3.32-.09.62-.23.93-.37,1.61-.74,3.22-1.47,4.97-1.81,1.76-.35,3.53-.4,5.26.18.28.1.55.24.83.34.22.08.46.16.68.16.34,0,.62-.26.7-.58.09-.37-.03-.77-.38-.93-.68-.3-1.36-.62-2.08-.8-.83-.21-1.7-.27-2.55-.39v.07h-.02Z" style="fill: #050505; stroke-width: 0px;"/>
  <path d="m17.38,27.06v-5.01c0-.71-.7-1.11-1.32-.76-.31.17-.42.44-.41.79v10.08c0,.49.33.85.8.89.53.05.92-.31.93-.87.01-.62,0-1.25,0-1.87v-3.25h0Z" style="fill: #050505; stroke-width: 0px;"/>
  <path d="m9.17,10.79c.57-.54,1.11-1.06,1.7-1.62-.75.04-1.46.08-2.21.13.19.55.35,1.03.51,1.5h0Z" style="fill: #050505; stroke-width: 0px;"/>
</svg>